<mxfile host="Electron" modified="2025-07-25T02:34:39.489Z" agent="Mozilla/5.0 (Windows NT 10.0; Win64; x64) AppleWebKit/537.36 (KHTML, like Gecko) draw.io/24.6.4 Chrome/124.0.6367.207 Electron/30.0.6 Safari/537.36" etag="HIKsFHyZ_-fRY0RyiQG3" version="24.6.4" type="device">
  <diagram name="第 1 页" id="c520o-07__Yy_zE6Yr-1">
    <mxGraphModel dx="2012" dy="683" grid="1" gridSize="10" guides="1" tooltips="1" connect="1" arrows="1" fold="1" page="1" pageScale="1" pageWidth="827" pageHeight="1169" math="1" shadow="0">
      <root>
        <mxCell id="0" />
        <mxCell id="1" parent="0" />
        <mxCell id="3x9VQPqJ0UYl1RBQ3x5A-15" value="&lt;font style=&quot;font-size: 20px;&quot;&gt;Time(us)&lt;/font&gt;" style="text;html=1;align=center;verticalAlign=middle;resizable=0;points=[];autosize=1;strokeColor=none;fillColor=none;" parent="1" vertex="1">
          <mxGeometry x="-99.99878701050613" y="483.86235489220553" width="100" height="40" as="geometry" />
        </mxCell>
        <mxCell id="FHaP1MZA_MiW3h3WRkFN-6" value="" style="group" parent="1" vertex="1" connectable="0">
          <mxGeometry x="-798.997870105062" y="70.56882255389718" width="770" height="571.2935323383083" as="geometry" />
        </mxCell>
        <mxCell id="3x9VQPqJ0UYl1RBQ3x5A-65" value="&lt;font style=&quot;font-size: 20px;&quot;&gt;&lt;b&gt;Normal BLE packet&lt;/b&gt;&lt;/font&gt;" style="rounded=0;whiteSpace=wrap;html=1;" parent="FHaP1MZA_MiW3h3WRkFN-6" vertex="1">
          <mxGeometry x="45.84314231136581" y="31" width="181.08882521489974" height="58.70646766169154" as="geometry" />
        </mxCell>
        <mxCell id="3x9VQPqJ0UYl1RBQ3x5A-66" value="&lt;font style=&quot;font-size: 20px;&quot;&gt;&lt;b&gt;CTE&lt;/b&gt;&lt;/font&gt;" style="rounded=0;whiteSpace=wrap;html=1;" parent="FHaP1MZA_MiW3h3WRkFN-6" vertex="1">
          <mxGeometry x="226.9319675262655" y="31" width="91.69054441260747" height="58.70646766169154" as="geometry" />
        </mxCell>
        <mxCell id="3x9VQPqJ0UYl1RBQ3x5A-84" value="" style="group" parent="FHaP1MZA_MiW3h3WRkFN-6" vertex="1" connectable="0">
          <mxGeometry x="45.84314231136581" y="117.4129353233831" width="440" height="48.92205638474295" as="geometry" />
        </mxCell>
        <mxCell id="3x9VQPqJ0UYl1RBQ3x5A-68" value="&lt;font style=&quot;font-size: 20px;&quot;&gt;&lt;b&gt;Reference Period&lt;/b&gt;&lt;/font&gt;" style="rounded=0;whiteSpace=wrap;html=1;" parent="3x9VQPqJ0UYl1RBQ3x5A-84" vertex="1">
          <mxGeometry x="20" width="101.6" height="48.92" as="geometry" />
        </mxCell>
        <mxCell id="3x9VQPqJ0UYl1RBQ3x5A-69" value="&lt;font style=&quot;font-size: 20px;&quot;&gt;&lt;b&gt;Switch Slot&lt;/b&gt;&lt;/font&gt;" style="rounded=0;whiteSpace=wrap;html=1;" parent="3x9VQPqJ0UYl1RBQ3x5A-84" vertex="1">
          <mxGeometry x="121.6" width="68.4" height="48.92" as="geometry" />
        </mxCell>
        <mxCell id="3x9VQPqJ0UYl1RBQ3x5A-70" value="&lt;font style=&quot;font-size: 20px;&quot;&gt;&lt;b&gt;Sample Slot&lt;/b&gt;&lt;/font&gt;" style="rounded=0;whiteSpace=wrap;html=1;" parent="3x9VQPqJ0UYl1RBQ3x5A-84" vertex="1">
          <mxGeometry x="189.2" width="70.8" height="48.92" as="geometry" />
        </mxCell>
        <mxCell id="3x9VQPqJ0UYl1RBQ3x5A-72" value="" style="ellipse;whiteSpace=wrap;html=1;aspect=fixed;fillColor=#000000;" parent="3x9VQPqJ0UYl1RBQ3x5A-84" vertex="1">
          <mxGeometry x="264.7314322099422" y="22.42260917634052" width="2.4921487697275655" height="2.4921487697275655" as="geometry" />
        </mxCell>
        <mxCell id="3x9VQPqJ0UYl1RBQ3x5A-73" value="" style="ellipse;whiteSpace=wrap;html=1;aspect=fixed;fillColor=#000000;" parent="3x9VQPqJ0UYl1RBQ3x5A-84" vertex="1">
          <mxGeometry x="272.33137763223726" y="22.42260917634052" width="2.4921487697275655" height="2.4921487697275655" as="geometry" />
        </mxCell>
        <mxCell id="3x9VQPqJ0UYl1RBQ3x5A-74" value="" style="ellipse;whiteSpace=wrap;html=1;aspect=fixed;fillColor=#000000;" parent="3x9VQPqJ0UYl1RBQ3x5A-84" vertex="1">
          <mxGeometry x="279.9313230545322" y="22.42260917634052" width="2.4921487697275655" height="2.4921487697275655" as="geometry" />
        </mxCell>
        <mxCell id="3x9VQPqJ0UYl1RBQ3x5A-82" value="&lt;font style=&quot;font-size: 20px;&quot;&gt;&lt;b&gt;Switch Slot&lt;/b&gt;&lt;/font&gt;" style="rounded=0;whiteSpace=wrap;html=1;" parent="3x9VQPqJ0UYl1RBQ3x5A-84" vertex="1">
          <mxGeometry x="290" width="70" height="48.92" as="geometry" />
        </mxCell>
        <mxCell id="3x9VQPqJ0UYl1RBQ3x5A-83" value="&lt;font style=&quot;font-size: 20px;&quot;&gt;&lt;b&gt;Sample Slot&lt;/b&gt;&lt;/font&gt;" style="rounded=0;whiteSpace=wrap;html=1;" parent="3x9VQPqJ0UYl1RBQ3x5A-84" vertex="1">
          <mxGeometry x="360" width="80" height="48.92" as="geometry" />
        </mxCell>
        <mxCell id="3x9VQPqJ0UYl1RBQ3x5A-67" value="&lt;font style=&quot;font-size: 20px;&quot;&gt;&lt;b&gt;Guard Period&lt;/b&gt;&lt;/font&gt;" style="rounded=0;whiteSpace=wrap;html=1;" parent="3x9VQPqJ0UYl1RBQ3x5A-84" vertex="1">
          <mxGeometry x="-45.849999999999994" width="65.85" height="48.92" as="geometry" />
        </mxCell>
        <mxCell id="3x9VQPqJ0UYl1RBQ3x5A-81" value="" style="rounded=0;whiteSpace=wrap;html=1;fillColor=none;" parent="3x9VQPqJ0UYl1RBQ3x5A-84" vertex="1">
          <mxGeometry x="260" width="30" height="48.92" as="geometry" />
        </mxCell>
        <mxCell id="3x9VQPqJ0UYl1RBQ3x5A-85" value="" style="endArrow=classic;html=1;rounded=0;exitX=0;exitY=1;exitDx=0;exitDy=0;entryX=0;entryY=0;entryDx=0;entryDy=0;" parent="FHaP1MZA_MiW3h3WRkFN-6" source="3x9VQPqJ0UYl1RBQ3x5A-66" target="3x9VQPqJ0UYl1RBQ3x5A-67" edge="1">
          <mxGeometry width="50" height="50" relative="1" as="geometry">
            <mxPoint x="326.2633906399236" y="195.6882255389718" as="sourcePoint" />
            <mxPoint x="364.4677841451767" y="146.76616915422883" as="targetPoint" />
          </mxGeometry>
        </mxCell>
        <mxCell id="3x9VQPqJ0UYl1RBQ3x5A-86" value="" style="endArrow=classic;html=1;rounded=0;exitX=1;exitY=1;exitDx=0;exitDy=0;entryX=1;entryY=0;entryDx=0;entryDy=0;" parent="FHaP1MZA_MiW3h3WRkFN-6" source="3x9VQPqJ0UYl1RBQ3x5A-66" target="3x9VQPqJ0UYl1RBQ3x5A-83" edge="1">
          <mxGeometry width="50" height="50" relative="1" as="geometry">
            <mxPoint x="326.2633906399236" y="195.6882255389718" as="sourcePoint" />
            <mxPoint x="364.4677841451767" y="146.76616915422883" as="targetPoint" />
          </mxGeometry>
        </mxCell>
        <mxCell id="3x9VQPqJ0UYl1RBQ3x5A-87" value="" style="endArrow=classic;startArrow=classic;html=1;rounded=0;" parent="FHaP1MZA_MiW3h3WRkFN-6" edge="1">
          <mxGeometry width="50" height="50" relative="1" as="geometry">
            <mxPoint x="0.0013849092645656924" y="176.11940298507463" as="sourcePoint" />
            <mxPoint x="64.99787010506208" y="175.43117744610282" as="targetPoint" />
          </mxGeometry>
        </mxCell>
        <mxCell id="3x9VQPqJ0UYl1RBQ3x5A-88" value="&lt;font style=&quot;font-size: 20px;&quot;&gt;4us&lt;/font&gt;" style="text;html=1;align=center;verticalAlign=middle;resizable=0;points=[];autosize=1;strokeColor=none;fillColor=none;" parent="FHaP1MZA_MiW3h3WRkFN-6" vertex="1">
          <mxGeometry y="164.3781094527363" width="60" height="40" as="geometry" />
        </mxCell>
        <mxCell id="3x9VQPqJ0UYl1RBQ3x5A-89" value="" style="endArrow=classic;startArrow=classic;html=1;rounded=0;" parent="FHaP1MZA_MiW3h3WRkFN-6" edge="1">
          <mxGeometry width="50" height="50" relative="1" as="geometry">
            <mxPoint x="66.99841451766954" y="175.42940298507463" as="sourcePoint" />
            <mxPoint x="169.99787010506208" y="175.43117744610282" as="targetPoint" />
          </mxGeometry>
        </mxCell>
        <mxCell id="3x9VQPqJ0UYl1RBQ3x5A-90" value="&lt;font style=&quot;font-size: 20px;&quot;&gt;8us&lt;/font&gt;" style="text;html=1;align=center;verticalAlign=middle;resizable=0;points=[];autosize=1;strokeColor=none;fillColor=none;" parent="FHaP1MZA_MiW3h3WRkFN-6" vertex="1">
          <mxGeometry x="85.31425978987583" y="166.33810945273632" width="60" height="40" as="geometry" />
        </mxCell>
        <mxCell id="3x9VQPqJ0UYl1RBQ3x5A-91" value="" style="endArrow=classic;startArrow=classic;html=1;rounded=0;" parent="FHaP1MZA_MiW3h3WRkFN-6" edge="1">
          <mxGeometry width="50" height="50" relative="1" as="geometry">
            <mxPoint x="168.09720152817576" y="176.11940298507463" as="sourcePoint" />
            <mxPoint x="233.99787010506208" y="176.43117744610282" as="targetPoint" />
          </mxGeometry>
        </mxCell>
        <mxCell id="3x9VQPqJ0UYl1RBQ3x5A-92" value="&lt;font style=&quot;font-size: 20px;&quot;&gt;1us&lt;/font&gt;" style="text;html=1;align=center;verticalAlign=middle;resizable=0;points=[];autosize=1;strokeColor=none;fillColor=none;" parent="FHaP1MZA_MiW3h3WRkFN-6" vertex="1">
          <mxGeometry x="170.89399235912134" y="166.3381094527363" width="60" height="40" as="geometry" />
        </mxCell>
        <mxCell id="3x9VQPqJ0UYl1RBQ3x5A-93" value="" style="endArrow=classic;startArrow=classic;html=1;rounded=0;" parent="FHaP1MZA_MiW3h3WRkFN-6" edge="1">
          <mxGeometry width="50" height="50" relative="1" as="geometry">
            <mxPoint x="235.46014326647565" y="176.11940298507463" as="sourcePoint" />
            <mxPoint x="305.9978701050621" y="176.43117744610282" as="targetPoint" />
          </mxGeometry>
        </mxCell>
        <mxCell id="3x9VQPqJ0UYl1RBQ3x5A-94" value="&lt;font style=&quot;font-size: 20px;&quot;&gt;1us&lt;/font&gt;" style="text;html=1;align=center;verticalAlign=middle;resizable=0;points=[];autosize=1;strokeColor=none;fillColor=none;" parent="FHaP1MZA_MiW3h3WRkFN-6" vertex="1">
          <mxGeometry x="239.3069340974212" y="166.3381094527363" width="60" height="40" as="geometry" />
        </mxCell>
        <mxCell id="3x9VQPqJ0UYl1RBQ3x5A-111" value="" style="shape=partialRectangle;whiteSpace=wrap;html=1;bottom=0;right=0;fillColor=none;rotation=-135;" parent="FHaP1MZA_MiW3h3WRkFN-6" vertex="1">
          <mxGeometry x="629.1344508118434" y="112.65008291873966" width="4.584527220630373" height="5.870646766169155" as="geometry" />
        </mxCell>
        <mxCell id="3x9VQPqJ0UYl1RBQ3x5A-116" value="" style="endArrow=classic;html=1;rounded=0;entryX=0;entryY=0.5;entryDx=0;entryDy=0;" parent="FHaP1MZA_MiW3h3WRkFN-6" edge="1">
          <mxGeometry width="50" height="50" relative="1" as="geometry">
            <mxPoint x="598.997870105062" y="49.43117744610282" as="sourcePoint" />
            <mxPoint x="524.9262368672398" y="136.98175787728027" as="targetPoint" />
          </mxGeometry>
        </mxCell>
        <mxCell id="3x9VQPqJ0UYl1RBQ3x5A-95" value="" style="triangle;whiteSpace=wrap;html=1;rotation=90;" parent="FHaP1MZA_MiW3h3WRkFN-6" vertex="1">
          <mxGeometry x="596.06545235978" y="126.70812603648426" width="18.812370319138427" height="45.008291873963515" as="geometry" />
        </mxCell>
        <mxCell id="3x9VQPqJ0UYl1RBQ3x5A-96" value="" style="endArrow=none;html=1;rounded=0;entryX=1;entryY=0.5;entryDx=0;entryDy=0;" parent="FHaP1MZA_MiW3h3WRkFN-6" target="3x9VQPqJ0UYl1RBQ3x5A-95" edge="1">
          <mxGeometry width="50" height="50" relative="1" as="geometry">
            <mxPoint x="605.4716375193493" y="205.47263681592042" as="sourcePoint" />
            <mxPoint x="652.5025633171954" y="149.212271973466" as="targetPoint" />
          </mxGeometry>
        </mxCell>
        <mxCell id="3x9VQPqJ0UYl1RBQ3x5A-97" value="" style="triangle;whiteSpace=wrap;html=1;rotation=90;" parent="FHaP1MZA_MiW3h3WRkFN-6" vertex="1">
          <mxGeometry x="652.5025633171954" y="126.70812603648426" width="18.812370319138427" height="45.008291873963515" as="geometry" />
        </mxCell>
        <mxCell id="3x9VQPqJ0UYl1RBQ3x5A-98" value="" style="endArrow=none;html=1;rounded=0;entryX=1;entryY=0.5;entryDx=0;entryDy=0;" parent="FHaP1MZA_MiW3h3WRkFN-6" target="3x9VQPqJ0UYl1RBQ3x5A-97" edge="1">
          <mxGeometry width="50" height="50" relative="1" as="geometry">
            <mxPoint x="661.9087484767645" y="205.47263681592042" as="sourcePoint" />
            <mxPoint x="708.9396742746105" y="149.212271973466" as="targetPoint" />
          </mxGeometry>
        </mxCell>
        <mxCell id="3x9VQPqJ0UYl1RBQ3x5A-99" value="" style="endArrow=classic;html=1;rounded=0;entryX=0;entryY=0.5;entryDx=0;entryDy=0;" parent="FHaP1MZA_MiW3h3WRkFN-6" target="3x9VQPqJ0UYl1RBQ3x5A-95" edge="1">
          <mxGeometry width="50" height="50" relative="1" as="geometry">
            <mxPoint x="681.997870105062" y="50.43117744610282" as="sourcePoint" />
            <mxPoint x="652.5025633171954" y="149.212271973466" as="targetPoint" />
          </mxGeometry>
        </mxCell>
        <mxCell id="3x9VQPqJ0UYl1RBQ3x5A-100" value="" style="endArrow=classic;html=1;rounded=0;entryX=0;entryY=0.5;entryDx=0;entryDy=0;" parent="FHaP1MZA_MiW3h3WRkFN-6" edge="1">
          <mxGeometry width="50" height="50" relative="1" as="geometry">
            <mxPoint x="736.997870105062" y="47.43117744610282" as="sourcePoint" />
            <mxPoint x="661.9087484767645" y="137.96019900497512" as="targetPoint" />
          </mxGeometry>
        </mxCell>
        <mxCell id="3x9VQPqJ0UYl1RBQ3x5A-101" value="" style="endArrow=none;dashed=1;html=1;dashPattern=1 3;strokeWidth=2;rounded=0;entryX=0;entryY=0.5;entryDx=0;entryDy=0;" parent="FHaP1MZA_MiW3h3WRkFN-6" target="3x9VQPqJ0UYl1RBQ3x5A-97" edge="1">
          <mxGeometry width="50" height="50" relative="1" as="geometry">
            <mxPoint x="579.997870105062" y="60.43117744610282" as="sourcePoint" />
            <mxPoint x="652.5025633171954" y="149.212271973466" as="targetPoint" />
          </mxGeometry>
        </mxCell>
        <mxCell id="3x9VQPqJ0UYl1RBQ3x5A-104" value="" style="endArrow=none;dashed=1;html=1;rounded=0;" parent="FHaP1MZA_MiW3h3WRkFN-6" edge="1">
          <mxGeometry width="50" height="50" relative="1" as="geometry">
            <mxPoint x="502.00360076408793" y="137.96019900497512" as="sourcePoint" />
            <mxPoint x="739.997870105062" y="138.43117744610282" as="targetPoint" />
          </mxGeometry>
        </mxCell>
        <mxCell id="3x9VQPqJ0UYl1RBQ3x5A-105" value="&lt;font style=&quot;font-size: 20px;&quot;&gt;$$\theta$$&lt;/font&gt;" style="text;html=1;align=center;verticalAlign=middle;whiteSpace=wrap;rounded=0;" parent="FHaP1MZA_MiW3h3WRkFN-6" vertex="1">
          <mxGeometry x="514.9957283535882" y="40.43038142620232" width="56.43711095741527" height="33.756218905472636" as="geometry" />
        </mxCell>
        <mxCell id="3x9VQPqJ0UYl1RBQ3x5A-106" value="" style="endArrow=none;dashed=1;html=1;rounded=0;entryX=0;entryY=0.5;entryDx=0;entryDy=0;" parent="FHaP1MZA_MiW3h3WRkFN-6" edge="1">
          <mxGeometry width="50" height="50" relative="1" as="geometry">
            <mxPoint x="523.997870105062" y="22.43117744610282" as="sourcePoint" />
            <mxPoint x="524.2720195632844" y="137.1673242980498" as="targetPoint" />
          </mxGeometry>
        </mxCell>
        <mxCell id="3x9VQPqJ0UYl1RBQ3x5A-107" value="" style="endArrow=classic;html=1;rounded=0;curved=1;" parent="FHaP1MZA_MiW3h3WRkFN-6" edge="1">
          <mxGeometry width="50" height="50" relative="1" as="geometry">
            <mxPoint x="527.2213987418897" y="41.09452736318407" as="sourcePoint" />
            <mxPoint x="574.2523245397358" y="74.85074626865674" as="targetPoint" />
            <Array as="points">
              <mxPoint x="555.4399542205974" y="41.09452736318407" />
            </Array>
          </mxGeometry>
        </mxCell>
        <mxCell id="3x9VQPqJ0UYl1RBQ3x5A-109" value="&lt;font style=&quot;font-size: 20px;&quot;&gt;d&lt;/font&gt;" style="text;html=1;align=center;verticalAlign=middle;whiteSpace=wrap;rounded=0;" parent="FHaP1MZA_MiW3h3WRkFN-6" vertex="1">
          <mxGeometry x="612.0551766953201" y="142.363184079602" width="45.84527220630374" height="29.35323383084577" as="geometry" />
        </mxCell>
        <mxCell id="3x9VQPqJ0UYl1RBQ3x5A-112" value="&lt;font style=&quot;font-size: 20px;&quot;&gt;$$dsin(\theta)$$&lt;/font&gt;" style="text;html=1;align=center;verticalAlign=middle;resizable=0;points=[];autosize=1;strokeColor=none;fillColor=none;" parent="FHaP1MZA_MiW3h3WRkFN-6" vertex="1">
          <mxGeometry x="498.31601719197715" y="93.7128192371476" width="170" height="40" as="geometry" />
        </mxCell>
        <mxCell id="3x9VQPqJ0UYl1RBQ3x5A-114" value="" style="triangle;whiteSpace=wrap;html=1;rotation=90;" parent="FHaP1MZA_MiW3h3WRkFN-6" vertex="1">
          <mxGeometry x="514.995729341633" y="126.70812603648426" width="18.812370319138427" height="45.008291873963515" as="geometry" />
        </mxCell>
        <mxCell id="3x9VQPqJ0UYl1RBQ3x5A-115" value="" style="endArrow=none;html=1;rounded=0;entryX=1;entryY=0.5;entryDx=0;entryDy=0;" parent="FHaP1MZA_MiW3h3WRkFN-6" target="3x9VQPqJ0UYl1RBQ3x5A-114" edge="1">
          <mxGeometry width="50" height="50" relative="1" as="geometry">
            <mxPoint x="524.4019145012021" y="205.4726368159204" as="sourcePoint" />
            <mxPoint x="571.4328402990482" y="149.212271973466" as="targetPoint" />
          </mxGeometry>
        </mxCell>
        <mxCell id="3x9VQPqJ0UYl1RBQ3x5A-1" value="" style="endArrow=classic;html=1;rounded=0;" parent="FHaP1MZA_MiW3h3WRkFN-6" edge="1">
          <mxGeometry width="50" height="50" relative="1" as="geometry">
            <mxPoint x="34.385643432137314" y="419.4037498206171" as="sourcePoint" />
            <mxPoint x="770" y="419.58302683568536" as="targetPoint" />
          </mxGeometry>
        </mxCell>
        <mxCell id="3x9VQPqJ0UYl1RBQ3x5A-2" value="" style="endArrow=classic;html=1;rounded=0;" parent="FHaP1MZA_MiW3h3WRkFN-6" edge="1">
          <mxGeometry width="50" height="50" relative="1" as="geometry">
            <mxPoint x="34.385643432137314" y="419.4037498206171" as="sourcePoint" />
            <mxPoint x="34.385643432137314" y="224.87788519492946" as="targetPoint" />
          </mxGeometry>
        </mxCell>
        <mxCell id="3x9VQPqJ0UYl1RBQ3x5A-3" value="" style="endArrow=none;html=1;rounded=0;dashed=1;dashPattern=12 12;" parent="FHaP1MZA_MiW3h3WRkFN-6" edge="1">
          <mxGeometry width="50" height="50" relative="1" as="geometry">
            <mxPoint x="309.45664499219976" y="395.08801674240624" as="sourcePoint" />
            <mxPoint x="401.1469788455538" y="370.77228366419524" as="targetPoint" />
          </mxGeometry>
        </mxCell>
        <mxCell id="3x9VQPqJ0UYl1RBQ3x5A-4" value="" style="endArrow=none;dashed=1;html=1;rounded=0;" parent="FHaP1MZA_MiW3h3WRkFN-6" edge="1">
          <mxGeometry width="50" height="50" relative="1" as="geometry">
            <mxPoint x="401.1469788455538" y="419.4037498206171" as="sourcePoint" />
            <mxPoint x="401.1469788455538" y="249.19361827314043" as="targetPoint" />
          </mxGeometry>
        </mxCell>
        <mxCell id="3x9VQPqJ0UYl1RBQ3x5A-6" value="" style="endArrow=none;html=1;rounded=0;" parent="FHaP1MZA_MiW3h3WRkFN-6" edge="1">
          <mxGeometry width="50" height="50" relative="1" as="geometry">
            <mxPoint x="401.1469788455538" y="370.77228366419524" as="sourcePoint" />
            <mxPoint x="492.83731269890797" y="346.45655058598425" as="targetPoint" />
          </mxGeometry>
        </mxCell>
        <mxCell id="3x9VQPqJ0UYl1RBQ3x5A-7" value="" style="endArrow=none;dashed=1;html=1;rounded=0;" parent="FHaP1MZA_MiW3h3WRkFN-6" edge="1">
          <mxGeometry width="50" height="50" relative="1" as="geometry">
            <mxPoint x="492.83731269890797" y="419.4037498206171" as="sourcePoint" />
            <mxPoint x="492.83731269890797" y="249.19361827314043" as="targetPoint" />
          </mxGeometry>
        </mxCell>
        <mxCell id="3x9VQPqJ0UYl1RBQ3x5A-8" value="" style="endArrow=none;dashed=1;html=1;rounded=0;" parent="FHaP1MZA_MiW3h3WRkFN-6" edge="1">
          <mxGeometry width="50" height="50" relative="1" as="geometry">
            <mxPoint x="584.5276465522621" y="419.4037498206171" as="sourcePoint" />
            <mxPoint x="584.5276465522621" y="249.19361827314043" as="targetPoint" />
          </mxGeometry>
        </mxCell>
        <mxCell id="3x9VQPqJ0UYl1RBQ3x5A-9" value="" style="endArrow=none;dashed=1;html=1;rounded=0;" parent="FHaP1MZA_MiW3h3WRkFN-6" edge="1">
          <mxGeometry width="50" height="50" relative="1" as="geometry">
            <mxPoint x="676.2179804056163" y="419.4037498206171" as="sourcePoint" />
            <mxPoint x="676.2179804056163" y="249.19361827314043" as="targetPoint" />
          </mxGeometry>
        </mxCell>
        <mxCell id="3x9VQPqJ0UYl1RBQ3x5A-10" value="" style="endArrow=none;html=1;rounded=0;dashed=1;dashPattern=12 12;" parent="FHaP1MZA_MiW3h3WRkFN-6" edge="1">
          <mxGeometry width="50" height="50" relative="1" as="geometry">
            <mxPoint x="492.83731269890797" y="322.14081750777336" as="sourcePoint" />
            <mxPoint x="584.5276465522621" y="297.82508442956237" as="targetPoint" />
          </mxGeometry>
        </mxCell>
        <mxCell id="3x9VQPqJ0UYl1RBQ3x5A-11" value="" style="endArrow=none;html=1;rounded=0;strokeColor=#000000;" parent="FHaP1MZA_MiW3h3WRkFN-6" edge="1">
          <mxGeometry width="50" height="50" relative="1" as="geometry">
            <mxPoint x="584.5276465522621" y="297.82508442956237" as="sourcePoint" />
            <mxPoint x="676.2179804056163" y="273.5093513513514" as="targetPoint" />
          </mxGeometry>
        </mxCell>
        <mxCell id="3x9VQPqJ0UYl1RBQ3x5A-12" value="" style="endArrow=none;html=1;rounded=0;strokeColor=#ff0000;dashed=1;" parent="FHaP1MZA_MiW3h3WRkFN-6" edge="1">
          <mxGeometry width="50" height="50" relative="1" as="geometry">
            <mxPoint x="401.1469788455538" y="346.45655058598425" as="sourcePoint" />
            <mxPoint x="492.83731269890797" y="322.14081750777336" as="targetPoint" />
          </mxGeometry>
        </mxCell>
        <mxCell id="3x9VQPqJ0UYl1RBQ3x5A-13" value="" style="ellipse;whiteSpace=wrap;html=1;aspect=fixed;" parent="FHaP1MZA_MiW3h3WRkFN-6" vertex="1">
          <mxGeometry x="442.4076290795632" y="356.1828438172687" width="4.670041363269096" height="4.670041363269096" as="geometry" />
        </mxCell>
        <mxCell id="3x9VQPqJ0UYl1RBQ3x5A-14" value="" style="ellipse;whiteSpace=wrap;html=1;aspect=fixed;" parent="FHaP1MZA_MiW3h3WRkFN-6" vertex="1">
          <mxGeometry x="626.5523829017161" y="282.6277512556805" width="4.670041363269096" height="4.670041363269096" as="geometry" />
        </mxCell>
        <mxCell id="3x9VQPqJ0UYl1RBQ3x5A-16" value="&lt;font style=&quot;font-size: 20px;&quot;&gt;Phase&lt;/font&gt;" style="text;html=1;align=center;verticalAlign=middle;resizable=0;points=[];autosize=1;strokeColor=none;fillColor=none;rotation=-90;" parent="FHaP1MZA_MiW3h3WRkFN-6" vertex="1">
          <mxGeometry x="-22.279954071762845" y="237.03575173403493" width="80" height="40" as="geometry" />
        </mxCell>
        <mxCell id="3x9VQPqJ0UYl1RBQ3x5A-17" value="" style="endArrow=classic;startArrow=classic;html=1;rounded=0;" parent="FHaP1MZA_MiW3h3WRkFN-6" edge="1">
          <mxGeometry width="50" height="50" relative="1" as="geometry">
            <mxPoint x="309.45664499219976" y="273.5093513513514" as="sourcePoint" />
            <mxPoint x="401.1469788455538" y="273.5093513513514" as="targetPoint" />
          </mxGeometry>
        </mxCell>
        <mxCell id="3x9VQPqJ0UYl1RBQ3x5A-18" value="&lt;font style=&quot;font-size: 20px;&quot;&gt;&lt;b&gt;Switch&amp;nbsp;&lt;/b&gt;&lt;/font&gt;&lt;div&gt;&lt;font style=&quot;font-size: 20px;&quot;&gt;&lt;b&gt;Slot&lt;/b&gt;&lt;/font&gt;&lt;/div&gt;" style="text;html=1;align=center;verticalAlign=middle;resizable=0;points=[];autosize=1;strokeColor=none;fillColor=none;" parent="FHaP1MZA_MiW3h3WRkFN-6" vertex="1">
          <mxGeometry x="312.9961883277379" y="217.03832755321696" width="90" height="60" as="geometry" />
        </mxCell>
        <mxCell id="3x9VQPqJ0UYl1RBQ3x5A-19" value="" style="endArrow=classic;startArrow=classic;html=1;rounded=0;" parent="FHaP1MZA_MiW3h3WRkFN-6" edge="1">
          <mxGeometry width="50" height="50" relative="1" as="geometry">
            <mxPoint x="400.38289273010923" y="273.5093513513514" as="sourcePoint" />
            <mxPoint x="492.0732265834634" y="273.5093513513514" as="targetPoint" />
          </mxGeometry>
        </mxCell>
        <mxCell id="3x9VQPqJ0UYl1RBQ3x5A-20" value="&lt;font style=&quot;font-size: 20px;&quot;&gt;&lt;b&gt;Sample&amp;nbsp;&lt;/b&gt;&lt;/font&gt;&lt;div&gt;&lt;font style=&quot;font-size: 20px;&quot;&gt;&lt;b&gt;Slot&lt;/b&gt;&lt;/font&gt;&lt;/div&gt;" style="text;html=1;align=center;verticalAlign=middle;resizable=0;points=[];autosize=1;strokeColor=none;fillColor=none;" parent="FHaP1MZA_MiW3h3WRkFN-6" vertex="1">
          <mxGeometry x="397.8561054053042" y="216.0330831853624" width="100" height="60" as="geometry" />
        </mxCell>
        <mxCell id="3x9VQPqJ0UYl1RBQ3x5A-21" value="" style="endArrow=classic;startArrow=classic;html=1;rounded=0;" parent="FHaP1MZA_MiW3h3WRkFN-6" edge="1">
          <mxGeometry width="50" height="50" relative="1" as="geometry">
            <mxPoint x="492.83731269890797" y="273.5093513513514" as="sourcePoint" />
            <mxPoint x="584.5276465522621" y="273.5093513513514" as="targetPoint" />
          </mxGeometry>
        </mxCell>
        <mxCell id="3x9VQPqJ0UYl1RBQ3x5A-22" value="&lt;font style=&quot;font-size: 20px;&quot;&gt;&lt;b&gt;Switch&amp;nbsp;&lt;/b&gt;&lt;/font&gt;&lt;div&gt;&lt;font style=&quot;font-size: 20px;&quot;&gt;&lt;b&gt;Slot&lt;/b&gt;&lt;/font&gt;&lt;/div&gt;" style="text;html=1;align=center;verticalAlign=middle;resizable=0;points=[];autosize=1;strokeColor=none;fillColor=none;" parent="FHaP1MZA_MiW3h3WRkFN-6" vertex="1">
          <mxGeometry x="494.8568595249923" y="217.5487518823248" width="90" height="60" as="geometry" />
        </mxCell>
        <mxCell id="3x9VQPqJ0UYl1RBQ3x5A-23" value="" style="endArrow=classic;startArrow=classic;html=1;rounded=0;" parent="FHaP1MZA_MiW3h3WRkFN-6" edge="1">
          <mxGeometry width="50" height="50" relative="1" as="geometry">
            <mxPoint x="583.7635604368177" y="273.5093513513514" as="sourcePoint" />
            <mxPoint x="675.4538942901719" y="273.5093513513514" as="targetPoint" />
          </mxGeometry>
        </mxCell>
        <mxCell id="3x9VQPqJ0UYl1RBQ3x5A-24" value="&lt;font style=&quot;font-size: 20px;&quot;&gt;&lt;b&gt;Sample&amp;nbsp;&lt;/b&gt;&lt;/font&gt;&lt;div&gt;&lt;font style=&quot;font-size: 20px;&quot;&gt;&lt;b&gt;Slot&lt;/b&gt;&lt;/font&gt;&lt;/div&gt;" style="text;html=1;align=center;verticalAlign=middle;resizable=0;points=[];autosize=1;strokeColor=none;fillColor=none;" parent="FHaP1MZA_MiW3h3WRkFN-6" vertex="1">
          <mxGeometry x="582.4326824956006" y="215.0330831853624" width="100" height="60" as="geometry" />
        </mxCell>
        <mxCell id="3x9VQPqJ0UYl1RBQ3x5A-25" value="" style="ellipse;whiteSpace=wrap;html=1;aspect=fixed;dashed=1;strokeColor=#ff0000;dashPattern=1 1;fillColor=#ffffff;" parent="FHaP1MZA_MiW3h3WRkFN-6" vertex="1">
          <mxGeometry x="442.4076290795632" y="331.25921741210243" width="4.670041363269096" height="4.670041363269096" as="geometry" />
        </mxCell>
        <mxCell id="3x9VQPqJ0UYl1RBQ3x5A-26" value="" style="ellipse;whiteSpace=wrap;html=1;aspect=fixed;" parent="FHaP1MZA_MiW3h3WRkFN-6" vertex="1">
          <mxGeometry x="349.18912299531985" y="368.3407103563742" width="4.670041363269096" height="4.670041363269096" as="geometry" />
        </mxCell>
        <mxCell id="3x9VQPqJ0UYl1RBQ3x5A-27" value="" style="ellipse;whiteSpace=wrap;html=1;aspect=fixed;" parent="FHaP1MZA_MiW3h3WRkFN-6" vertex="1">
          <mxGeometry x="534.0979629329174" y="314.27767089213114" width="4.670041363269096" height="4.670041363269096" as="geometry" />
        </mxCell>
        <mxCell id="3x9VQPqJ0UYl1RBQ3x5A-28" value="" style="endArrow=classic;startArrow=classic;html=1;rounded=0;" parent="FHaP1MZA_MiW3h3WRkFN-6" edge="1">
          <mxGeometry width="50" height="50" relative="1" as="geometry">
            <mxPoint x="446.2280596567863" y="358.61441712508974" as="sourcePoint" />
            <mxPoint x="446.2280596567863" y="334.29868404687875" as="targetPoint" />
          </mxGeometry>
        </mxCell>
        <mxCell id="3x9VQPqJ0UYl1RBQ3x5A-30" value="&lt;font style=&quot;font-size: 20px;&quot;&gt;$$\Delta_\phi$$&lt;/font&gt;" style="text;html=1;align=center;verticalAlign=middle;resizable=0;points=[];autosize=1;strokeColor=none;fillColor=none;" parent="FHaP1MZA_MiW3h3WRkFN-6" vertex="1">
          <mxGeometry x="385.85472049922004" y="323.8671107390577" width="160" height="40" as="geometry" />
        </mxCell>
        <mxCell id="3x9VQPqJ0UYl1RBQ3x5A-32" value="&lt;font style=&quot;font-size: 20px;&quot;&gt;n&lt;/font&gt;" style="text;html=1;align=center;verticalAlign=middle;resizable=0;points=[];autosize=1;strokeColor=none;fillColor=none;" parent="FHaP1MZA_MiW3h3WRkFN-6" vertex="1">
          <mxGeometry x="297.9953532605304" y="415.14849653193016" width="30" height="40" as="geometry" />
        </mxCell>
        <mxCell id="3x9VQPqJ0UYl1RBQ3x5A-33" value="&lt;font style=&quot;font-size: 20px;&quot;&gt;n+1&lt;/font&gt;" style="text;html=1;align=center;verticalAlign=middle;resizable=0;points=[];autosize=1;strokeColor=none;fillColor=none;" parent="FHaP1MZA_MiW3h3WRkFN-6" vertex="1">
          <mxGeometry x="378.22439538221533" y="415.14849653193016" width="60" height="40" as="geometry" />
        </mxCell>
        <mxCell id="3x9VQPqJ0UYl1RBQ3x5A-34" value="&lt;font style=&quot;font-size: 20px;&quot;&gt;n+2&lt;/font&gt;" style="text;html=1;align=center;verticalAlign=middle;resizable=0;points=[];autosize=1;strokeColor=none;fillColor=none;" parent="FHaP1MZA_MiW3h3WRkFN-6" vertex="1">
          <mxGeometry x="466.09429865834636" y="415.14849653193016" width="60" height="40" as="geometry" />
        </mxCell>
        <mxCell id="3x9VQPqJ0UYl1RBQ3x5A-35" value="&lt;font style=&quot;font-size: 20px;&quot;&gt;n+3&lt;/font&gt;" style="text;html=1;align=center;verticalAlign=middle;resizable=0;points=[];autosize=1;strokeColor=none;fillColor=none;" parent="FHaP1MZA_MiW3h3WRkFN-6" vertex="1">
          <mxGeometry x="561.6050630889238" y="415.14849653193016" width="60" height="40" as="geometry" />
        </mxCell>
        <mxCell id="3x9VQPqJ0UYl1RBQ3x5A-36" value="&lt;font style=&quot;font-size: 20px;&quot;&gt;n+4&lt;/font&gt;" style="text;html=1;align=center;verticalAlign=middle;resizable=0;points=[];autosize=1;strokeColor=none;fillColor=none;" parent="FHaP1MZA_MiW3h3WRkFN-6" vertex="1">
          <mxGeometry x="653.2953969422778" y="415.14849653193016" width="60" height="40" as="geometry" />
        </mxCell>
        <mxCell id="3x9VQPqJ0UYl1RBQ3x5A-37" value="&lt;font style=&quot;font-size: 20px;&quot;&gt;$$\phi_0$$&lt;/font&gt;" style="text;html=1;align=center;verticalAlign=middle;resizable=0;points=[];autosize=1;strokeColor=none;fillColor=none;" parent="FHaP1MZA_MiW3h3WRkFN-6" vertex="1">
          <mxGeometry x="235.1501863338534" y="381.3617235111218" width="120" height="40" as="geometry" />
        </mxCell>
        <mxCell id="3x9VQPqJ0UYl1RBQ3x5A-38" value="" style="endArrow=none;html=1;rounded=0;strokeColor=#ff0000;dashed=1;" parent="FHaP1MZA_MiW3h3WRkFN-6" edge="1">
          <mxGeometry width="50" height="50" relative="1" as="geometry">
            <mxPoint x="309.45664499219976" y="370.77228366419524" as="sourcePoint" />
            <mxPoint x="401.1469788455538" y="346.45655058598425" as="targetPoint" />
          </mxGeometry>
        </mxCell>
        <mxCell id="3x9VQPqJ0UYl1RBQ3x5A-39" value="" style="endArrow=none;html=1;rounded=0;strokeColor=#ff0000;dashed=1;" parent="FHaP1MZA_MiW3h3WRkFN-6" edge="1">
          <mxGeometry width="50" height="50" relative="1" as="geometry">
            <mxPoint x="492.83731269890797" y="346.45655058598425" as="sourcePoint" />
            <mxPoint x="584.5276465522621" y="322.14081750777336" as="targetPoint" />
          </mxGeometry>
        </mxCell>
        <mxCell id="3x9VQPqJ0UYl1RBQ3x5A-40" value="" style="endArrow=none;html=1;rounded=0;strokeColor=#ff0000;dashed=1;" parent="FHaP1MZA_MiW3h3WRkFN-6" edge="1">
          <mxGeometry width="50" height="50" relative="1" as="geometry">
            <mxPoint x="584.5276465522621" y="322.14081750777336" as="sourcePoint" />
            <mxPoint x="676.2179804056163" y="297.82508442956237" as="targetPoint" />
          </mxGeometry>
        </mxCell>
        <mxCell id="3x9VQPqJ0UYl1RBQ3x5A-42" value="" style="endArrow=none;dashed=1;html=1;rounded=0;" parent="FHaP1MZA_MiW3h3WRkFN-6" edge="1">
          <mxGeometry width="50" height="50" relative="1" as="geometry">
            <mxPoint x="309.45664499219976" y="419.4037498206171" as="sourcePoint" />
            <mxPoint x="309.45664499219976" y="249.19361827314043" as="targetPoint" />
          </mxGeometry>
        </mxCell>
        <mxCell id="3x9VQPqJ0UYl1RBQ3x5A-43" value="" style="endArrow=none;dashed=1;html=1;rounded=0;" parent="FHaP1MZA_MiW3h3WRkFN-6" edge="1">
          <mxGeometry width="50" height="50" relative="1" as="geometry">
            <mxPoint x="217.7663111388456" y="419.4037498206171" as="sourcePoint" />
            <mxPoint x="217.7663111388456" y="249.19361827314043" as="targetPoint" />
          </mxGeometry>
        </mxCell>
        <mxCell id="3x9VQPqJ0UYl1RBQ3x5A-45" value="" style="endArrow=none;html=1;rounded=0;" parent="FHaP1MZA_MiW3h3WRkFN-6" edge="1">
          <mxGeometry width="50" height="50" relative="1" as="geometry">
            <mxPoint x="33.99787010506202" y="393.4311774461028" as="sourcePoint" />
            <mxPoint x="217.7663111388456" y="346.45655058598425" as="targetPoint" />
          </mxGeometry>
        </mxCell>
        <mxCell id="3x9VQPqJ0UYl1RBQ3x5A-46" value="&lt;font style=&quot;font-size: 20px;&quot;&gt;4&lt;/font&gt;" style="text;html=1;align=center;verticalAlign=middle;resizable=0;points=[];autosize=1;strokeColor=none;fillColor=none;" parent="FHaP1MZA_MiW3h3WRkFN-6" vertex="1">
          <mxGeometry x="22.924351700468055" y="415.14849653193016" width="30" height="40" as="geometry" />
        </mxCell>
        <mxCell id="3x9VQPqJ0UYl1RBQ3x5A-47" value="&lt;font style=&quot;font-size: 20px;&quot;&gt;12&lt;/font&gt;" style="text;html=1;align=center;verticalAlign=middle;resizable=0;points=[];autosize=1;strokeColor=none;fillColor=none;" parent="FHaP1MZA_MiW3h3WRkFN-6" vertex="1">
          <mxGeometry x="198.66415825273012" y="415.14849653193016" width="50" height="40" as="geometry" />
        </mxCell>
        <mxCell id="3x9VQPqJ0UYl1RBQ3x5A-50" value="" style="ellipse;whiteSpace=wrap;html=1;aspect=fixed;" parent="FHaP1MZA_MiW3h3WRkFN-6" vertex="1">
          <mxGeometry x="68.76951862714513" y="381.71436354939016" width="4.670041363269096" height="4.670041363269096" as="geometry" />
        </mxCell>
        <mxCell id="3x9VQPqJ0UYl1RBQ3x5A-51" value="" style="ellipse;whiteSpace=wrap;html=1;aspect=fixed;" parent="FHaP1MZA_MiW3h3WRkFN-6" vertex="1">
          <mxGeometry x="90.16392985959442" y="376.2433236067927" width="4.670041363269096" height="4.670041363269096" as="geometry" />
        </mxCell>
        <mxCell id="3x9VQPqJ0UYl1RBQ3x5A-52" value="" style="ellipse;whiteSpace=wrap;html=1;aspect=fixed;" parent="FHaP1MZA_MiW3h3WRkFN-6" vertex="1">
          <mxGeometry x="111.55834109204372" y="370.77228366419524" width="4.670041363269096" height="4.670041363269096" as="geometry" />
        </mxCell>
        <mxCell id="3x9VQPqJ0UYl1RBQ3x5A-53" value="" style="ellipse;whiteSpace=wrap;html=1;aspect=fixed;" parent="FHaP1MZA_MiW3h3WRkFN-6" vertex="1">
          <mxGeometry x="132.18866620904842" y="365.30124372159776" width="4.670041363269096" height="4.670041363269096" as="geometry" />
        </mxCell>
        <mxCell id="3x9VQPqJ0UYl1RBQ3x5A-54" value="" style="ellipse;whiteSpace=wrap;html=1;aspect=fixed;" parent="FHaP1MZA_MiW3h3WRkFN-6" vertex="1">
          <mxGeometry x="153.58307744149772" y="359.222310452045" width="4.670041363269096" height="4.670041363269096" as="geometry" />
        </mxCell>
        <mxCell id="3x9VQPqJ0UYl1RBQ3x5A-55" value="" style="ellipse;whiteSpace=wrap;html=1;aspect=fixed;" parent="FHaP1MZA_MiW3h3WRkFN-6" vertex="1">
          <mxGeometry x="174.97748867394702" y="353.75127050944764" width="4.670041363269096" height="4.670041363269096" as="geometry" />
        </mxCell>
        <mxCell id="3x9VQPqJ0UYl1RBQ3x5A-56" value="" style="ellipse;whiteSpace=wrap;html=1;aspect=fixed;" parent="FHaP1MZA_MiW3h3WRkFN-6" vertex="1">
          <mxGeometry x="197.13598602184092" y="347.67233723989483" width="4.670041363269096" height="4.670041363269096" as="geometry" />
        </mxCell>
        <mxCell id="3x9VQPqJ0UYl1RBQ3x5A-57" value="" style="endArrow=classic;startArrow=classic;html=1;rounded=0;" parent="FHaP1MZA_MiW3h3WRkFN-6" edge="1">
          <mxGeometry width="50" height="50" relative="1" as="geometry">
            <mxPoint x="34.385643432137314" y="273.5093513513514" as="sourcePoint" />
            <mxPoint x="217.7663111388456" y="273.5093513513514" as="targetPoint" />
          </mxGeometry>
        </mxCell>
        <mxCell id="3x9VQPqJ0UYl1RBQ3x5A-58" value="&lt;font style=&quot;font-size: 20px;&quot;&gt;Reference Period&lt;/font&gt;" style="text;html=1;align=center;verticalAlign=middle;resizable=0;points=[];autosize=1;strokeColor=none;fillColor=none;fontStyle=1" parent="FHaP1MZA_MiW3h3WRkFN-6" vertex="1">
          <mxGeometry x="35.917836666209084" y="233.01866858981106" width="180" height="40" as="geometry" />
        </mxCell>
        <mxCell id="3x9VQPqJ0UYl1RBQ3x5A-59" value="" style="ellipse;whiteSpace=wrap;html=1;aspect=fixed;fillColor=#000000;" parent="FHaP1MZA_MiW3h3WRkFN-6" vertex="1">
          <mxGeometry x="233.04803344773794" y="337.3381506816552" width="2.335020681634548" height="2.335020681634548" as="geometry" />
        </mxCell>
        <mxCell id="3x9VQPqJ0UYl1RBQ3x5A-60" value="" style="ellipse;whiteSpace=wrap;html=1;aspect=fixed;fillColor=#000000;" parent="FHaP1MZA_MiW3h3WRkFN-6" vertex="1">
          <mxGeometry x="244.50932517940726" y="337.3381506816552" width="2.335020681634548" height="2.335020681634548" as="geometry" />
        </mxCell>
        <mxCell id="3x9VQPqJ0UYl1RBQ3x5A-61" value="" style="ellipse;whiteSpace=wrap;html=1;aspect=fixed;fillColor=#000000;" parent="FHaP1MZA_MiW3h3WRkFN-6" vertex="1">
          <mxGeometry x="255.9706169110765" y="337.3381506816552" width="2.335020681634548" height="2.335020681634548" as="geometry" />
        </mxCell>
        <mxCell id="3x9VQPqJ0UYl1RBQ3x5A-62" value="" style="ellipse;whiteSpace=wrap;html=1;aspect=fixed;fillColor=#000000;" parent="FHaP1MZA_MiW3h3WRkFN-6" vertex="1">
          <mxGeometry x="267.4319086427457" y="337.3381506816552" width="2.335020681634548" height="2.335020681634548" as="geometry" />
        </mxCell>
        <mxCell id="3x9VQPqJ0UYl1RBQ3x5A-63" value="" style="ellipse;whiteSpace=wrap;html=1;aspect=fixed;fillColor=#000000;" parent="FHaP1MZA_MiW3h3WRkFN-6" vertex="1">
          <mxGeometry x="278.893200374415" y="337.3381506816552" width="2.335020681634548" height="2.335020681634548" as="geometry" />
        </mxCell>
        <mxCell id="3x9VQPqJ0UYl1RBQ3x5A-31" value="&lt;font style=&quot;font-size: 20px;&quot;&gt;$$\Delta_\phi$$&lt;/font&gt;" style="text;html=1;align=center;verticalAlign=middle;resizable=0;points=[];autosize=1;strokeColor=none;fillColor=none;" parent="FHaP1MZA_MiW3h3WRkFN-6" vertex="1">
          <mxGeometry x="473.7239735413417" y="299.3892441999522" width="160" height="40" as="geometry" />
        </mxCell>
        <mxCell id="7QLW7DJTTwsm1_P5T1At-3" value="" style="ellipse;whiteSpace=wrap;html=1;aspect=fixed;" vertex="1" parent="1">
          <mxGeometry x="-751.2283514779169" y="457.28318610328733" width="4.670041363269096" height="4.670041363269096" as="geometry" />
        </mxCell>
      </root>
    </mxGraphModel>
  </diagram>
</mxfile>
